HIERARCHY
ROOT Hips
{
  OFFSET 0.0 0.0 0.0
  CHANNELS 6 Xposition Yposition Zposition Zrotation Yrotation Xrotation
  JOINT LHipJoint
  {
    OFFSET 0.0 0.0 0.0
    CHANNELS 3 Zrotation Yrotation Xrotation
    JOINT LeftUpLeg
    {
      OFFSET 1.363059998 -1.794630051 0.839290023
      CHANNELS 3 Zrotation Yrotation Xrotation
      JOINT LeftLeg
      {
        OFFSET 2.448110104 -6.726130009 0.0
        CHANNELS 3 Zrotation Yrotation Xrotation
        JOINT LeftFoot
        {
          OFFSET 2.562200069 -7.039589882 0.0
          CHANNELS 3 Zrotation Yrotation Xrotation
          JOINT LeftToeBase
          {
            OFFSET 0.157639995 -0.433109999 2.322550058
            CHANNELS 3 Zrotation Yrotation Xrotation
            End Site
            {
              OFFSET 0.0 -0.0 1.189659953
            }
          }
        }
      }
    }
  }
  JOINT RHipJoint
  {
    OFFSET 0.0 0.0 0.0
    CHANNELS 3 Zrotation Yrotation Xrotation
    JOINT RightUpLeg
    {
      OFFSET -1.305520058 -1.794630051 0.839290023
      CHANNELS 3 Zrotation Yrotation Xrotation
      JOINT RightLeg
      {
        OFFSET -2.54253006 -6.985549927 0.0
        CHANNELS 3 Zrotation Yrotation Xrotation
        JOINT RightFoot
        {
          OFFSET -2.568259954 -7.056230068 0.0
          CHANNELS 3 Zrotation Yrotation Xrotation
          JOINT RightToeBase
          {
            OFFSET -0.164729998 -0.452589989 2.363149881
            CHANNELS 3 Zrotation Yrotation Xrotation
            End Site
            {
              OFFSET -0.0 -0.0 1.21081996
            }
          }
        }
      }
    }
  }
  JOINT LowerBack
  {
    OFFSET 0.0 0.0 0.0
    CHANNELS 3 Zrotation Yrotation Xrotation
    JOINT Spine
    {
      OFFSET 0.028270001 2.035589933 -0.193379998
      CHANNELS 3 Zrotation Yrotation Xrotation
      JOINT Spine1
      {
        OFFSET 0.05672 2.04885006 -0.042750001
        CHANNELS 3 Zrotation Yrotation Xrotation
        JOINT Neck
        {
          OFFSET 0.0 0.0 0.0
          CHANNELS 3 Zrotation Yrotation Xrotation
          JOINT Neck1
          {
            OFFSET -0.054170001 1.74624002 0.172020003
            CHANNELS 3 Zrotation Yrotation Xrotation
            JOINT Head
            {
              OFFSET 0.10407 1.761360049 -0.123970002
              CHANNELS 3 Zrotation Yrotation Xrotation
              End Site
              {
                OFFSET 0.0372 1.770439982 -0.062410001
              }
            }
          }
        }
        JOINT LeftShoulder
        {
          OFFSET 0.0 0.0 0.0
          CHANNELS 3 Zrotation Yrotation Xrotation
          JOINT LeftArm
          {
            OFFSET 3.362410069 1.200889945 -0.311210006
            CHANNELS 3 Zrotation Yrotation Xrotation
            JOINT LeftForeArm
            {
              OFFSET 4.982999802 -0.0 -0.0
              CHANNELS 3 Zrotation Yrotation Xrotation
              JOINT LeftHand
              {
                OFFSET 3.483560085 -0.0 -0.0
                CHANNELS 3 Zrotation Yrotation Xrotation
                JOINT LeftFingerBase
                {
                  OFFSET 0.0 0.0 0.0
                  CHANNELS 3 Zrotation Yrotation Xrotation
                  JOINT LeftHandIndex1
                  {
                    OFFSET 0.715260029 -0.0 -0.0
                    CHANNELS 3 Zrotation Yrotation Xrotation
                    End Site
                    {
                      OFFSET 0.576659977 -0.0 -0.0
                    }
                  }
                }
                JOINT LThumb
                {
                  OFFSET 0.0 0.0 0.0
                  CHANNELS 3 Zrotation Yrotation Xrotation
                  End Site
                  {
                    OFFSET 0.585470021 -0.0 0.585470021
                  }
                }
              }
            }
          }
        }
        JOINT RightShoulder
        {
          OFFSET 0.0 0.0 0.0
          CHANNELS 3 Zrotation Yrotation Xrotation
          JOINT RightArm
          {
            OFFSET -3.136600018 1.374050021 -0.404650003
            CHANNELS 3 Zrotation Yrotation Xrotation
            JOINT RightForeArm
            {
              OFFSET -5.241899967 -0.0 -0.0
              CHANNELS 3 Zrotation Yrotation Xrotation
              JOINT RightHand
              {
                OFFSET -3.444169998 -0.0 -0.0
                CHANNELS 3 Zrotation Yrotation Xrotation
                JOINT RightFingerBase
                {
                  OFFSET 0.0 0.0 0.0
                  CHANNELS 3 Zrotation Yrotation Xrotation
                  JOINT RightHandIndex1
                  {
                    OFFSET -0.622529984 -0.0 -0.0
                    CHANNELS 3 Zrotation Yrotation Xrotation
                    End Site
                    {
                      OFFSET -0.501900017 -0.0 -0.0
                    }
                  }
                }
                JOINT RThumb
                {
                  OFFSET 0.0 0.0 0.0
                  CHANNELS 3 Zrotation Yrotation Xrotation
                  End Site
                  {
                    OFFSET -0.509559989 -0.0 0.509559989
                  }
                }
              }
            }
          }
        }
      }
    }
  }
}
MOTION
Frames: 8
Frame Time: 0.0083333
0.0 17.64909935 0.0 -178.00239563 -9.267006874 179.354003906 0.0 -0.0 0.0 -11.070602417 -3.04420042 -13.543700218 1.284499764 7.182001114 20.25569725 -0.054700002 -6.681399345 -3.146799803 0.104700007 -2.086700201 -5.745299816 0.0 -0.0 0.0 23.765598297 6.980699062 1.991398931 -8.386299133 -16.39620018 53.942512512 -0.385199934 8.954702377 18.222295761 -1.105599761 6.680899143 -18.773298264 -1.348100305 1.821799994 10.229800224 0.409699917 2.151000023 1.782599807 0.898300111 1.023900151 -3.942300797 -9.515001297 -11.204801559 -2.236800432 10.644701004 -15.823607445 7.743400097 3.860400438 -7.809001446 4.281599522 0.0 -0.0 0.0 -82.914093018 3.056400061 -6.720499516 9.526898384 -15.996195793 -1.341599703 0.0 -0.0 13.964099884 7.165698528 -2.346400023 -0.29490003 -7.125 0.0 0.0 -14.822900772 27.508401871 6.504202843 0.0 -0.0 0.0 88.087295532 8.53059864 9.675800323 -8.723603249 14.718900681 -1.12890017 0.0 -0.0 1.753500104 -20.360097885 -26.045900345 9.254897118 7.125 -0.0 0.0 10.549396515 -57.200389862 -3.176797152 
-0.055299997 17.684900284 -0.116199493 -178.247299194 -7.951999187 179.314987183 0.0 -0.0 0.0 -11.517403603 -2.162100792 -12.458803177 1.182000041 6.899799347 19.418899536 -0.016800005 -5.810599327 -3.565700054 0.149400026 -2.490900278 -6.864501476 0.0 -0.0 0.0 22.909301758 7.527301311 0.609199941 -9.015997887 -16.817998886 56.145488739 -0.670899808 5.867699623 18.707597733 -0.493100017 4.502100468 -12.493800163 -1.774000049 1.984600306 10.288401604 0.402699977 2.312899828 1.842799783 1.107399821 1.105700135 -3.933300734 -9.533902168 -11.146401405 -2.368200779 10.611298561 -15.708498001 7.634399414 3.858300447 -7.748500347 4.257300377 0.0 -0.0 0.0 -83.126609802 2.723798037 -6.953898907 9.396899223 -15.790794373 -1.305999398 0.0 -0.0 14.650198936 7.126699448 -1.183399916 -0.147999987 -7.125 0.0 0.0 -15.009901047 28.640695572 6.174098969 0.0 -0.0 0.0 87.805389404 8.627400398 7.717401981 -8.231600761 13.927599907 -1.007100582 0.0 -0.0 3.774399757 -20.725797653 -26.632404327 9.626599312 7.125 -0.0 0.0 10.454298973 -57.871894836 -3.317498922 
-0.106400013 17.723499298 -0.238601685 -178.774597168 -7.174007416 179.222000122 0.0 -0.0 0.0 -12.275400162 -1.784100175 -11.123102188 1.0697999 6.575399876 18.463300705 0.012699993 -4.951100349 -3.880601168 0.168800041 -2.647000074 -7.297502041 0.0 -0.0 0.0 21.791397095 7.546000957 -0.960400403 -9.622900963 -17.192302704 58.220306396 -0.719100118 5.476698875 18.931697845 -0.653299987 5.169898987 -14.393798828 -2.643600702 2.29150033 10.314600945 0.405299991 2.616100311 1.954100251 1.557899833 1.260500073 -3.881700277 -9.088500023 -11.235097885 -2.389700174 10.306201935 -15.74580574 7.155201912 3.712800026 -7.764901638 4.060200214 0.0 -0.0 0.0 -83.314109802 2.315199375 -5.947801113 9.344799995 -15.708299637 -1.291900158 0.0 -0.0 14.804401398 6.998498917 -0.82950002 -0.101800002 -7.125 0.0 0.0 -15.15760231 28.983102798 6.111001492 0.0 -0.0 0.0 87.431098938 8.549200058 5.237199783 -7.90690279 13.401803017 -0.93040067 0.0 -0.0 5.57460022 -21.078697205 -27.698602676 10.157399178 7.125 -0.0 0.0 10.638504028 -59.026405334 -3.672502756 
-0.154600024 17.749500275 -0.351501465 -178.993911743 -6.220002174 178.989990234 0.0 -0.0 0.0 -12.663700104 -1.382000089 -9.802598953 0.987199724 6.324098587 17.727695465 0.043000005 -3.962399483 -4.312799931 0.194299996 -2.838499784 -7.829499722 0.0 -0.0 0.0 21.009796143 7.556398869 -2.491000891 -10.246294975 -17.545993805 60.308414459 -0.617599964 5.169299126 17.624797821 -0.686999917 5.299199104 -14.763895035 -2.9150002 2.295300245 10.643098831 0.419000119 2.566700697 2.064899921 1.722900271 1.231800079 -3.95849967 -9.30820179 -11.144000053 -2.788500071 10.281100273 -15.571998596 7.24049902 3.725300074 -7.667499542 4.149799347 0.0 -0.0 0.0 -83.628799438 1.990299702 -5.590000153 9.351099014 -15.718203545 -1.29360044 0.0 -0.0 14.99229908 6.873300076 -0.827599883 -0.099799983 -7.125 0.0 0.0 -15.252999306 28.98289299 6.152099133 0.0 -0.0 0.0 87.136703491 8.568499565 3.759300709 -7.624302864 12.942002296 -0.866000414 0.0 -0.0 7.33300066 -20.988700867 -27.658298492 10.097598076 7.125 -0.0 0.0 10.714697838 -58.965305328 -3.68349719 
-0.204100013 17.77230072 -0.466598511 -178.873901367 -5.844987392 179.161010742 0.0 -0.0 0.0 -12.680196762 -1.310799837 -9.138400078 0.920899928 6.11400032 17.115697861 0.0506 -3.370299578 -4.332900524 0.181099996 -2.74099946 -7.5583992 0.0 -0.0 0.0 20.588703156 7.102900982 -4.45800066 -10.833701134 -17.85269928 62.240406036 -0.076699942 5.454199791 9.775699615 -1.615100265 8.013700485 -22.755702972 -2.599499702 1.782899499 10.477798462 0.440399975 1.929099679 2.072299719 1.662899971 0.911999941 -3.815100431 -9.907599449 -10.826099396 -3.16400075 10.645999908 -15.118902206 7.351598263 3.935399771 -7.43229866 4.27449894 0.0 -0.0 0.0 -83.882896423 1.591800213 -6.319099903 9.244001389 -15.548501015 -1.264700055 0.0 -0.0 15.605402946 6.388400078 -1.367699981 -0.153100029 -7.125 0.0 0.0 -15.541800499 28.451198578 6.480998993 0.0 -0.0 0.0 86.917015076 8.710301399 3.133001089 -7.365599155 12.519399643 -0.808999956 0.0 -0.0 8.826700211 -20.748193741 -27.953195572 10.069396019 7.125 -0.0 0.0 11.142098427 -59.205890656 -3.896997452 
-0.251300037 17.78440094 -0.573101044 -178.88659668 -4.956999302 179.130966187 0.0 -0.0 0.0 -12.829401016 -0.848899901 -8.406802177 0.87890017 5.976700306 16.716901779 0.058299989 -2.77760005 -4.422800541 0.143000022 -2.437200069 -6.715400219 0.0 -0.0 0.0 20.112501144 7.119299412 -5.982300282 -11.404700279 -18.127496719 64.088806152 -0.358400047 4.338201046 13.746001244 -0.402799994 4.074699879 -11.286803246 -2.620800257 1.616500139 10.549801826 0.461499929 1.698799849 2.110800028 1.727999926 0.795099795 -3.804699659 -10.30179882 -10.480499268 -3.205598831 11.195998192 -14.616598129 6.824501038 4.212799072 -7.179400444 4.141000748 0.0 -0.0 0.0 -84.077003479 1.286200404 -6.244101048 9.234599113 -15.533600807 -1.262199879 0.0 -0.0 15.799499512 6.209701061 -1.339099884 -0.145699993 -7.125 0.0 0.0 -15.680704117 28.476203918 6.533400059 0.0 -0.0 0.0 86.641593933 8.726800919 2.875798464 -7.217300415 12.276301384 -0.77720046 0.0 -0.0 9.742799759 -20.877500534 -29.000301361 10.476499557 7.125 -0.0 0.0 11.616701126 -60.284492493 -4.365599632 
-0.290199995 17.801599503 -0.690299988 -178.904708862 -4.572011948 179.338973999 0.0 -0.0 0.0 -12.952701569 -0.758100092 -7.99750042 0.859000087 5.910299778 16.524404526 0.068600014 -2.418700695 -4.697500229 0.127699986 -2.30369997 -6.345699787 0.0 -0.0 0.0 19.699403763 6.894899845 -7.7064991 -11.922100067 -18.357498169 65.741691589 -0.234300032 3.960900068 11.47990036 -0.284500033 3.430500507 -9.479802132 -2.913400173 1.623900175 10.18970108 0.564899862 1.697600126 2.116599798 2.007900238 0.798000157 -3.611000776 -10.23080349 -10.481002808 -3.198300838 11.366698265 -14.616699219 6.577399731 4.259200096 -7.176300526 4.073300362 0.0 -0.0 0.0 -84.190002441 0.76600039 -5.26800108 9.16300106 -15.419799805 -1.243100524 0.0 -0.0 16.220304489 6.454899311 -1.196699739 -0.135399997 -7.125 0.0 0.0 -15.516201973 28.617996216 6.405697346 0.0 -0.0 0.0 86.308700562 8.493898392 2.162799835 -7.23609972 12.307201385 -0.78120029 0.0 -0.0 10.122101784 -21.065401077 -29.698604584 10.803799629 7.125 -0.0 0.0 11.845397949 -61.025398254 -4.661997795 
-0.325300038 17.815599442 -0.797000885 -179.054504395 -3.655012369 179.362976074 0.0 -0.0 0.0 -13.218999863 -0.367100149 -7.422701359 0.845699906 5.865398884 16.394500732 0.089900002 -1.854599833 -5.323599815 0.076299995 -1.781699657 -4.902699471 0.0 -0.0 0.0 19.151601791 7.023501396 -9.257901192 -12.371801376 -18.543395996 67.162590027 -0.127599999 4.217200279 9.617200851 -0.335300058 3.721301079 -10.293800354 -3.336100101 1.725100279 10.119099617 0.611799896 1.78739953 2.171999454 2.285000086 0.842800021 -3.533900261 -10.151398659 -10.435199738 -3.449300528 11.404200554 -14.549098969 6.633000374 4.249700069 -7.131700039 4.121398926 0.0 -0.0 0.0 -84.307197571 0.189200222 -4.607999325 9.100002289 -15.319599152 -1.226400375 0.0 -0.0 16.618600845 6.542798996 -2.021399736 -0.231800005 -7.125 0.0 0.0 -15.333696365 27.818899155 6.626801968 0.0 -0.0 0.0 86.034301758 8.354398727 1.633901477 -7.237600803 12.309598923 -0.781500041 0.0 -0.0 10.563798904 -20.812999725 -29.603904724 10.6352005 7.125 -0.0 0.0 12.067401886 -60.869602203 -4.706102371 
